<svg width="40" height="40" viewBox="0 0 40 40" fill="none" xmlns="http://www.w3.org/2000/svg">
<circle cx="20" cy="20" r="20" fill="white"/>
<path d="M15.443 13.35C16.082 13.35 16.673 13.4 17.213 13.548C17.754 13.647 18.197 13.845 18.59 14.092C18.984 14.34 19.279 14.686 19.475 15.131C19.672 15.576 19.771 16.121 19.771 16.714C19.771 17.407 19.623 18 19.279 18.445C18.984 18.891 18.492 19.286 17.902 19.583C18.738 19.831 19.377 20.276 19.771 20.87C20.164 21.463 20.41 22.205 20.41 23.046C20.41 23.739 20.262 24.332 20.016 24.827C19.771 25.322 19.377 25.767 18.934 26.064C18.4528 26.3823 17.9208 26.6163 17.361 26.756C16.771 26.905 16.181 27.004 15.591 27.004H9V13.35H15.443ZM15.049 18.89C15.59 18.89 16.033 18.742 16.377 18.495C16.721 18.248 16.869 17.802 16.869 17.258C16.869 16.961 16.819 16.665 16.721 16.467C16.623 16.269 16.475 16.12 16.279 15.972C16.082 15.873 15.885 15.774 15.639 15.725C15.393 15.675 15.148 15.675 14.852 15.675H12V18.891H15.05L15.049 18.89ZM15.197 24.728C15.492 24.728 15.787 24.678 16.033 24.629C16.279 24.579 16.525 24.481 16.721 24.332C16.9214 24.1872 17.089 24.0018 17.213 23.788C17.311 23.541 17.41 23.244 17.41 22.898C17.41 22.205 17.213 21.71 16.82 21.364C16.426 21.067 15.885 20.919 15.246 20.919H12V24.729L15.197 24.728ZM24.689 24.678C25.082 25.074 25.672 25.272 26.459 25.272C27 25.272 27.492 25.124 27.885 24.877C28.279 24.58 28.525 24.283 28.623 23.987H31.033C30.639 25.173 30.049 26.014 29.263 26.559C28.475 27.053 27.541 27.35 26.41 27.35C25.6864 27.3522 24.9688 27.2179 24.295 26.954C23.6887 26.7266 23.148 26.3528 22.721 25.866C22.2643 25.4106 21.9267 24.8497 21.738 24.233C21.492 23.59 21.393 22.898 21.393 22.106C21.393 21.364 21.492 20.672 21.738 20.028C21.9749 19.4083 22.3252 18.8383 22.771 18.347C23.2201 17.8858 23.7543 17.516 24.344 17.258C25.0007 16.994 25.7022 16.8596 26.41 16.862C27.246 16.862 27.984 17.011 28.623 17.357C29.263 17.703 29.754 18.099 30.147 18.693C30.541 19.237 30.837 19.88 31.033 20.573C31.131 21.265 31.18 21.958 31.131 22.749H24C24 23.541 24.295 24.283 24.689 24.679V24.678ZM27.787 19.484C27.443 19.138 26.902 18.94 26.262 18.94C25.82 18.94 25.475 19.04 25.18 19.188C24.885 19.336 24.689 19.534 24.492 19.732C24.3107 19.9231 24.1905 20.1641 24.147 20.424C24.098 20.672 24.049 20.87 24.049 21.067H28.475C28.377 20.325 28.131 19.831 27.787 19.484ZM23.459 14.29H28.967V15.626H23.46V14.29H23.459Z" fill="#32353D"/>
</svg>
