<svg width="40" height="40" viewBox="0 0 40 40" fill="none" xmlns="http://www.w3.org/2000/svg">
<circle cx="20" cy="20" r="20" fill="white"/>
<path d="M27.0498 12.9101C26.133 11.984 25.041 11.2497 23.8374 10.7501C22.6339 10.2505 21.3429 9.99552 20.0398 10.0001C14.5798 10.0001 10.1298 14.4501 10.1298 19.9101C10.1298 21.6601 10.5898 23.3601 11.4498 24.8601L10.0498 30.0001L15.2998 28.6201C16.7498 29.4101 18.3798 29.8301 20.0398 29.8301C25.4998 29.8301 29.9498 25.3801 29.9498 19.9201C29.9498 17.2701 28.9198 14.7801 27.0498 12.9101ZM20.0398 28.1501C18.5598 28.1501 17.1098 27.7501 15.8398 27.0001L15.5398 26.8201L12.4198 27.6401L13.2498 24.6001L13.0498 24.2901C12.2276 22.977 11.7909 21.4593 11.7898 19.9101C11.7898 15.3701 15.4898 11.6701 20.0298 11.6701C22.2298 11.6701 24.2998 12.5301 25.8498 14.0901C26.6173 14.854 27.2255 15.7627 27.6392 16.7635C28.0529 17.7642 28.2638 18.8372 28.2598 19.9201C28.2798 24.4601 24.5798 28.1501 20.0398 28.1501ZM24.5598 21.9901C24.3098 21.8701 23.0898 21.2701 22.8698 21.1801C22.6398 21.1001 22.4798 21.0601 22.3098 21.3001C22.1398 21.5501 21.6698 22.1101 21.5298 22.2701C21.3898 22.4401 21.2398 22.4601 20.9898 22.3301C20.7398 22.2101 19.9398 21.9401 18.9998 21.1001C18.2598 20.4401 17.7698 19.6301 17.6198 19.3801C17.4798 19.1301 17.5998 19.0001 17.7298 18.8701C17.8398 18.7601 17.9798 18.5801 18.0998 18.4401C18.2198 18.3001 18.2698 18.1901 18.3498 18.0301C18.4298 17.8601 18.3898 17.7201 18.3298 17.6001C18.2698 17.4801 17.7698 16.2601 17.5698 15.7601C17.3698 15.2801 17.1598 15.3401 17.0098 15.3301H16.5298C16.3598 15.3301 16.0998 15.3901 15.8698 15.6401C15.6498 15.8901 15.0098 16.4901 15.0098 17.7101C15.0098 18.9301 15.8998 20.1101 16.0198 20.2701C16.1398 20.4401 17.7698 22.9401 20.2498 24.0101C20.8398 24.2701 21.2998 24.4201 21.6598 24.5301C22.2498 24.7201 22.7898 24.6901 23.2198 24.6301C23.6998 24.5601 24.6898 24.0301 24.8898 23.4501C25.0998 22.8701 25.0998 22.3801 25.0298 22.2701C24.9598 22.1601 24.8098 22.1101 24.5598 21.9901Z" fill="#32353D"/>
</svg>
